# xmcd CD database file
#
# Track frame offsets:
#	150
#	19148
#	31984
#	53488
#	69887
#	90516
#	109326
#	131132
#	149876
#	172180
#	181001
#	192799
#	208491
#	225542
#	247109
#	264234
#	275065
#	283629
#	301195
#
# Disc length: 4204 seconds
#
# Revision: 1
# Processed by: cddbd v1.5.2PL0 Copyright (c) Steve Scherf et al.
# Submitted via: CDex 1.70beta2
#
DISCID=1b106a13
DTITLE=Nassim Nicholas Taleb - The Black Swan [CD9)
DYEAR=2007
DGENRE=Jazz
TTITLE0=The Black Swan 09-01
TTITLE1=The Black Swan 09-02
TTITLE2=The Black Swan 09-03
TTITLE3=The Black Swan 09-04
TTITLE4=The Black Swan 09-05
TTITLE5=The Black Swan 09-06
TTITLE6=The Black Swan 09-07
TTITLE7=The Black Swan 09-08
TTITLE8=The Black Swan 09-09
TTITLE9=The Black Swan 09-10
TTITLE10=The Black Swan 09-11
TTITLE11=The Black Swan 09-12
TTITLE12=The Black Swan 09-13
TTITLE13=The Black Swan 09-14
TTITLE14=The Black Swan 09-15
TTITLE15=The Black Swan 09-16
TTITLE16=The Black Swan 09-17
TTITLE17=The Black Swan 09-18
TTITLE18=The Black Swan 09-19
EXTD=YEAR: 2007
EXTT0=
EXTT1=
EXTT2=
EXTT3=
EXTT4=
EXTT5=
EXTT6=
EXTT7=
EXTT8=
EXTT9=
EXTT10=
EXTT11=
EXTT12=
EXTT13=
EXTT14=
EXTT15=
EXTT16=
EXTT17=
EXTT18=
PLAYORDER=
